<?xml version="1.0" standalone="no"?>
<svg xmlns:xlink="http://www.w3.org/1999/xlink" id="wave" style="transform:rotate(180deg); transition: 0.3s" viewBox="0 0 1440 100" version="1.1" xmlns="http://www.w3.org/2000/svg"><defs><linearGradient id="sw-gradient-0" x1="0" x2="0" y1="1" y2="0"><stop stop-color="rgba(243, 248, 236, 1)" offset="0%"/><stop stop-color="rgba(243, 248, 236, 1)" offset="100%"/></linearGradient></defs><path style="transform:translate(0, 0px); opacity:1" fill="url(#sw-gradient-0)" d="M0,0L48,8.3C96,17,192,33,288,45C384,57,480,63,576,55C672,47,768,23,864,18.3C960,13,1056,27,1152,26.7C1248,27,1344,13,1440,11.7C1536,10,1632,20,1728,20C1824,20,1920,10,2016,8.3C2112,7,2208,13,2304,21.7C2400,30,2496,40,2592,43.3C2688,47,2784,43,2880,50C2976,57,3072,73,3168,78.3C3264,83,3360,77,3456,70C3552,63,3648,57,3744,46.7C3840,37,3936,23,4032,16.7C4128,10,4224,10,4320,11.7C4416,13,4512,17,4608,28.3C4704,40,4800,60,4896,56.7C4992,53,5088,27,5184,26.7C5280,27,5376,53,5472,61.7C5568,70,5664,60,5760,50C5856,40,5952,30,6048,25C6144,20,6240,20,6336,23.3C6432,27,6528,33,6624,30C6720,27,6816,13,6864,6.7L6912,0L6912,100L6864,100C6816,100,6720,100,6624,100C6528,100,6432,100,6336,100C6240,100,6144,100,6048,100C5952,100,5856,100,5760,100C5664,100,5568,100,5472,100C5376,100,5280,100,5184,100C5088,100,4992,100,4896,100C4800,100,4704,100,4608,100C4512,100,4416,100,4320,100C4224,100,4128,100,4032,100C3936,100,3840,100,3744,100C3648,100,3552,100,3456,100C3360,100,3264,100,3168,100C3072,100,2976,100,2880,100C2784,100,2688,100,2592,100C2496,100,2400,100,2304,100C2208,100,2112,100,2016,100C1920,100,1824,100,1728,100C1632,100,1536,100,1440,100C1344,100,1248,100,1152,100C1056,100,960,100,864,100C768,100,672,100,576,100C480,100,384,100,288,100C192,100,96,100,48,100L0,100Z"/></svg>